<?xml version="1.0" encoding="utf-8"?>
<svg xmlns="http://www.w3.org/2000/svg" viewBox="15.1981 27 203.513 129.7066" width="203.513pt" height="129.707pt" preserveAspectRatio="none"><g transform="matrix(0.10000000149011612, 0, 0, -0.10000000149011612, -3.552713678800501e-15, 229.99999999999997)" fill="#000000" stroke="none" id="object-0"><path d="M1366 1922 c-15 -59 -31 -114 -36 -121 -6 -11 -34 -12 -156 -3 -81 7 -150 10 -152 8 -5 -5 72 -64 182 -140 59 -41 85 -65 81 -75 -23 -79 -85 -340 -83 -352 2 -13 42 7 168 82 91 55 169 99 175 99 14 0 329 -227 333 -240 2 -6 -55 -10 -162 -10 -91 0 -166 -4 -166 -8 0 -5 60 -49 133 -99 72 -50 195 -134 272 -186 168 -115 225 -151 232 -143 3 2 -55 69 -128 148 -173 185 -183 197 -178 202 2 2 54 -2 114 -9 61 -7 112 -11 114 -9 4 3 -50 80 -208 294 -46 63 -95 129 -108 147 -13 17 -23 38 -23 45 1 7 55 45 121 83 66 39 125 75 129 81 7 7 -55 16 -198 28 -113 9 -212 22 -219 28 -7 5 -54 66 -105 134 -51 68 -95 124 -99 124 -4 0 -19 -49 -33 -108z" style="fill: rgb(255, 255, 255);"/><path d="M419 1536 c-122 -44 -229 -172 -260 -311 -10 -43 -9 -57 1 -70 7 -8 17 -15 22 -15 6 0 5 7 -2 15 -19 23 -5 98 32 166 31 59 102 149 118 149 4 0 1 -35 -7 -77 -8 -43 -20 -123 -26 -178 l-12 -99 -53 -31 -54 -30 41 -7 c23 -4 46 -10 51 -13 6 -3 10 -44 10 -89 0 -46 3 -104 6 -130 12 -85 24 -47 24 74 0 66 3 120 8 120 4 0 52 -35 107 -78 161 -125 175 -135 181 -129 3 2 -63 58 -145 122 -130 100 -151 121 -151 144 0 22 22 50 98 127 112 112 152 180 152 254 0 35 -5 51 -22 67 -31 28 -75 35 -119 19z m95 -27 c35 -28 34 -70 -5 -149 -39 -77 -179 -226 -186 -197 -6 23 24 242 40 299 11 36 19 45 47 55 51 17 74 16 104 -8z m-234 -444 c0 -9 -6 -12 -15 -9 -8 4 -12 10 -9 15 8 14 24 10 24 -6z" style="fill: rgb(255, 255, 255);"/><path d="M830 1298 c-1 -2 -2 -46 -3 -99 l-2 -96 -76 -75 c-92 -92 -122 -152 -95 -193 21 -32 55 -32 89 -1 36 33 62 89 83 179 17 74 20 79 64 107 26 17 51 30 57 30 5 0 22 -13 37 -29 l28 -29 -37 -47 c-43 -57 -46 -100 -5 -100 35 0 70 56 70 111 0 40 4 46 40 70 l39 26 31 -22 c37 -26 37 -40 4 -79 -43 -52 -51 -111 -14 -111 32 0 70 56 70 105 0 38 5 47 37 74 44 36 53 38 53 12 0 -32 21 -35 44 -6 l21 27 19 -21 c24 -27 46 -27 80 0 37 29 25 36 -13 8 -25 -18 -33 -20 -46 -9 -8 7 -15 23 -15 36 0 38 -19 38 -41 -1 -28 -46 -37 -38 -13 12 14 28 25 38 42 37 26 -1 29 11 6 20 -11 4 -27 -5 -48 -27 -17 -18 -53 -48 -79 -66 l-49 -33 -29 28 c-33 32 -35 37 -13 58 12 13 13 16 2 16 -8 0 -24 -11 -36 -25 -11 -13 -40 -36 -62 -51 l-41 -27 -31 31 c-31 31 -31 32 -13 52 10 11 15 23 12 26 -3 4 -19 -7 -34 -24 -27 -29 -90 -72 -105 -72 -5 0 -8 38 -8 84 0 47 -4 88 -10 91 -5 3 -10 5 -10 3z m-41 -350 c-22 -70 -64 -128 -92 -128 -27 0 -49 31 -42 58 9 36 57 102 107 147 42 38 43 39 46 16 2 -13 -6 -55 -19 -93z m227 80 c-3 -17 -14 -40 -23 -50 -20 -23 -48 -24 -39 -2 3 9 6 19 6 23 0 14 41 61 52 61 6 0 8 -12 4 -32z m178 10 c-13 -44 -35 -78 -49 -78 -23 0 -18 35 11 69 30 37 48 40 38 9z" style="fill: rgb(255, 255, 255);"/><path d="M770 1203 c-45 -67 -77 -94 -67 -57 3 11 8 29 12 42 9 31 -7 27 -27 -7 -9 -16 -28 -37 -43 -47 -30 -20 -44 -12 -61 39 l-11 32 -23 -38 c-28 -48 -38 -41 -14 10 16 32 24 38 47 36 24 -2 27 0 17 13 -7 7 -18 14 -25 14 -18 0 -64 -56 -71 -86 -14 -54 22 -68 45 -17 l12 25 20 -26 c23 -29 46 -33 74 -12 17 12 21 12 33 -6 13 -18 15 -18 33 -2 23 21 103 143 97 149 -2 2 -24 -26 -48 -62z" style="fill: rgb(255, 255, 255);"/><path d="M884 895 c-3 -8 -4 -20 -2 -27 3 -7 7 -1 10 15 6 29 1 36 -8 12z" style="fill: rgb(255, 255, 255);"/><path d="M1027 903 c-15 -14 -6 -39 13 -39 14 0 20 7 20 23 0 22 -19 31 -33 16z" style="fill: rgb(255, 255, 255);"/><path d="M1108 885 c2 -14 6 -25 7 -25 1 0 5 11 7 25 3 16 1 25 -7 25 -8 0 -10 -9 -7 -25z" style="fill: rgb(255, 255, 255);"/><path d="M1276 894 c-9 -25 -7 -30 13 -31 14 -1 17 3 14 18 -7 26 -20 32 -27 13z" style="fill: rgb(255, 255, 255);"/><path d="M1450 901 c0 -5 6 -12 13 -14 7 -3 5 -6 -5 -6 -25 -1 -23 -17 2 -17 21 0 24 5 14 30 -7 17 -24 22 -24 7z" style="fill: rgb(255, 255, 255);"/><path d="M1516 902 c-3 -5 4 -16 15 -25 10 -9 19 -12 19 -7 0 6 -7 13 -16 17 -13 5 -13 7 -2 14 9 6 9 9 1 9 -6 0 -14 -4 -17 -8z" style="fill: rgb(255, 255, 255);"/><path d="M1580 886 c0 -14 5 -28 12 -32 7 -5 8 -3 3 6 -4 7 -2 16 6 21 12 7 11 9 -1 9 -13 0 -13 1 0 10 13 8 12 10 -2 10 -12 0 -18 -8 -18 -24z" style="fill: rgb(255, 255, 255);"/><path d="M1650 887 c0 -14 6 -24 15 -24 8 0 15 6 15 14 0 7 -6 13 -12 13 -9 0 -8 4 2 10 13 8 12 10 -2 10 -12 0 -18 -8 -18 -23z" style="fill: rgb(255, 255, 255);"/><path d="M950 881 c0 -11 4 -22 9 -25 4 -3 6 6 3 19 -5 30 -12 33 -12 6z" style="fill: rgb(255, 255, 255);"/><path d="M1380 881 c0 -11 4 -22 9 -25 4 -3 6 6 3 19 -5 30 -12 33 -12 6z" style="fill: rgb(255, 255, 255);"/></g></svg>