<?xml version="1.0" encoding="UTF-8"?>
<svg version="1.1" viewBox="0 0 1152 1152" width="288" height="288" xmlns="http://www.w3.org/2000/svg">
<path transform="translate(0)" d="m0 0h1152v1152h-1152z" fill="#FEFEFE"/>
<path transform="translate(698,126)" d="m0 0 3 1 10 15 13 18 14 19 16 21 33 44 13 19 5 5 45 4 41 3 21 2 88 7 9 1h13v3l-6 5-22 14-13 8-23 14-15 9-26 15-13 8-16 9-5 2 4 7 15 22 14 19 12 17 12 16 13 18 10 13 14 19 12 16 42 57 14 20 12 17 4 6v2l-17-1-54-6-21-2-17-2-13-1 3 5 10 10 7 8 15 16 1 3h2l7 8 12 13 12 12 7 8 8 8 7 8 12 12 7 8 9 9 7 8 13 13 7 8 7 7 7 8 5 5v3h-14l-11-7-21-14-17-12-24-16-14-10-24-16-14-10-28-19-18-12-20-14-15-10-47-32-19-13-17-12-22-15-11-8-4-4 66-2 113-1-2-4-22-15-18-13-14-10-54-39-17-12-20-14-12-8-10-6-6 1-20 12-22 13-26 16-22 13-21 13-14 8-28 17-16 9h-3l4-24 11-43 16-61 10-38 5-23v-8l-22-15-18-13-13-9-17-12-13-9-19-14-16-11-17-13-1-6h12l40 3 34 3 17 1 20 2 17 1h20l18-70 6-24z" fill="#010000"/>
<path transform="translate(230,375)" d="m0 0 15 1 12 3 10 6 7 7 7 12 3 10 1 14-3 18-5 15-11 23-11 17-9 12-8 10-12 14-23 23-8 7-14 13-17 13-4 2-1 4-1 14v18l21 14 13 10 15 12 2 1v2l4 2 11 9 10 8 14 12 5 3v2l5 2 8 7 2 1v2l5 2 10 8 6 4v2l5 2 11 9 1 4-2 4-8-2-11-7-36-28-14-11-16-13-14-11-8-7-17-13-14-10-10-5v85l2 29v15l-1 1h-7l-6-8-2-10-2-22-1-22v-78l-13-4-16-2h-20l-2-3 1-5 8-5 15-8 24-15 4-3h2l2-31 5-43 6-39 5-29 7-30v-3l-10 8-13 12-11 13-10 14-12 19-8 16-7 16-6 17-4 17v24h9l1 1v6l-5 3h-9l-5-4-2-6v-27l4-17 7-20 7-15 8-16 12-20 12-17 10-11 7-8 15-13 13-10 17-10 21-9 14-3z" fill="#C71113"/>
<path transform="translate(417,499)" d="m0 0h5l3 4 2 13v31l-1 27-1 20 13-8 26-15 9-5 8-16 7-6 9-4h6l2 3v7l-2 2-7 3-4 4-2 3v8l7 7 9 7 7 8 4 3 9-6 15-11 11-8 10-6 7-14 8-7 7-3h6l4 7-4 5-8 4-5 8 1 6 2 4 4 2 13 12 6 7 6-2 11-9 16-11 15-10 5-1 2-5 5-8 8-10 8-7 7-2 9 1 6 4 4 5 1 7-3 1-11-6-8 1-7 7-9 15-5 14-1 6 5-5 12-22 7-9 2-2 5 1 3 6 1 16 2 9 4 6 7 3 9-2 9-7 7-6 5-7h2l1-3 4-1 2 1v7l-6 10-11 10-11 7-12 2-10-3-5-5-4-5-4-10-2-4-9 17-7 11-3 2h-9l-5-2-1-6v-19l-15 10-13 10-10 8h-2v7l1 5v17l-4 17-8 16-11 12-8 5-3 1h-13l-6-5-2-5v-15l5-12 8-13 12-14 10-10 1-4-7-8-9-9-8-7-5-6-7 4-17 12-14 11-3 3 1 8 1 5v11l-3 14-4 10-5 10-7 9-9 8-7 3h-12l-5-3-3-6-1-5 1-13 4-10 9-14 10-11 7-8 4-4v-6l-4-5-3-2v-2l-4-2-12-11-3-4v-2l-7 3-19 11-19 12-8 5-7 36-7 29-7 21-5 11-7 14-9 12-7 7-10 7-7 3-5 1h-14l-10-5-6-8-3-11v-10l3-12 8-16 8-12 11-14 12-13 20-20 14-11 11-8 2-5 5-44 1-11v-31l-14 24-14 23-10 15-10 14-8 8-2 1h-9l-5-4-3-9-1-5h-3l-2 4-7 6-10 5-9 1-9-3-8-7-5-9-1-7h-2l-6 10-6 11-7 8h-9l-5-3-1-3v-16l2-9 8-18 8-11 9-8 9-4 9 1 8 5 3 5v6l-3 1-7-4-3-2h-6l-6 4-8 10-7 14-3 9v6l6-9 13-23 7-6 4 1 2 6 1 14 3 11 4 6 6 3 8-1 7-4 6-6h2l2-4 10-11 5-13 5-7 8-1 1 1v7l-7 26-2 14 5-3 9-10 10-14 14-22 9-15 13-22z" fill="#C71113"/>
<path transform="translate(221,389)" d="m0 0h25l8 3 6 4 8 13 1 4v18l-4 17-7 17-9 16-15 22-13 16-7 8-11 12-22 22-11 9h-2v2l-6 4h-2v-12l11-84 8-44 6-26 1-8 8-5 16-6z" fill="#FEFEFE"/>
<path transform="translate(406,619)" d="m0 0h1v8l-5 24-8 29-8 22-7 13-11 14-8 6-10 4h-9l-6-3-6-9v-15l3-10 9-17 10-14 11-12 7-8 17-16 14-12z" fill="#FEFEFE"/>
<path transform="translate(596,617)" d="m0 0 2 1v11l-5 18-6 12-5 7-10 7h-5l-2-4 1-9 5-13 9-13 9-10 5-5z" fill="#FEFEFE"/>
<path transform="translate(507,618)" d="m0 0h3v11l-4 15-5 12-7 10-9 7h-5l-3-4 1-9 5-13 9-13 11-12z" fill="#FEFEFE"/>
<path transform="translate(483,695)" d="m0 0 9 1 5 5 1 4v10l-3 6-7 4-7-1-6-7-1-10 3-8 3-3z" fill="#0C0001"/>
<path transform="translate(517,695)" d="m0 0h9l5 2 2 4v6l-3 5 1 6 3 5-4 1-6-5-2-4-5-2 2 10-5 1-2-4 1-24z" fill="#100101"/>
<path transform="translate(825,696)" d="m0 0h17l3 4v7l-3 4v5l3 4v4l-5-1-5-6-2-3-3-1 1 10-5 1-2-3z" fill="#0E0101"/>
<path transform="translate(730,695)" d="m0 0 6 1 8 25v3l-5-1-2-5-11 1-3 5-4-1 3-11 5-15z" fill="#100101"/>
<path transform="translate(642,695)" d="m0 0 6 1 4 9 5 16v3l-5-1-5-5-8 2-4 4-3-1 8-26z" fill="#0E0101"/>
<path transform="translate(586,695)" d="m0 0h13l1 5-4 1h-6l-2 1v4l10 1-1 5-9 1v5l12 1-1 5h-16l-1-1v-27z" fill="#0F0101"/>
<path transform="translate(793,695)" d="m0 0h12l5 1v4l-12 1v5l11 1-1 5h-11l1 6 11 1 1 4-1 1h-16l-1-1v-27z" fill="#070000"/>
<path transform="translate(764,695)" d="m0 0 10 1 2 6h-3l-10-1 1 4 10 3 3 4v7l-3 4-3 1h-10l-3-2v-5l4 1h9v-4l-11-4-3-4v-6l3-4z" fill="#0C0001"/>
<path transform="translate(447,695)" d="m0 0h9l4 3v5l-5-2h-8l-2 2v12l2 3h8l6-2-1 5-4 3h-11l-5-5-2-7 1-10 5-6z" fill="#090000"/>
<path transform="translate(546,696)" d="m0 0h23l-1 4-7 2-1 22h-5v-23l-9-1z" fill="#0A0000"/>
<path transform="translate(484,700)" d="m0 0 7 1 2 5v9l-4 4h-6l-3-4v-12z" fill="#FEFEFE"/>
<path transform="translate(691,695)" d="m0 0 4 1 1 3v20h12l1 2-1 2-4 1h-13z" fill="#100101"/>
<path transform="translate(139,609)" d="m0 0h3v14l-3 1-14-3v-3l9-6z" fill="#FEFEFE"/>
<path transform="translate(522,700)" d="m0 0 5 1 1 5-2 2h-7l-2-2 1-5z" fill="#FEFEFE"/>
<path transform="translate(833,700)" d="m0 0 6 1 1 5-3 2h-6l-1-7z" fill="#FEFEFE"/>
<path transform="translate(730,703)" d="m0 0 3 1 2 6v4h-7l1-9z" fill="#FEFEFE"/>
<path transform="translate(644,702)" d="m0 0h2l2 12h-7l2-9z" fill="#FEFEFE"/>
</svg>
